<svg xmlns="http://www.w3.org/2000/svg" width="1200" height="675" viewBox="0 0 1200 675" role="img" aria-label="Birthday Video">
  <defs>
    <linearGradient id="g" x1="0" y1="0" x2="1" y2="1"><stop offset="0" stop-color="#facc15"/><stop offset="1" stop-color="#a855f7"/></linearGradient>
    <radialGradient id="r" cx="72%" cy="24%" r="50%"><stop offset="0" stop-color="rgba(255,255,255,.55)"/><stop offset="1" stop-color="rgba(255,255,255,0)"/></radialGradient>
    <filter id="shadow"><feDropShadow dx="0" dy="18" stdDeviation="22" flood-color="#020617" flood-opacity=".35"/></filter>
  </defs>
  <rect width="1200" height="675" fill="#020617"/>
  <rect x="38" y="38" width="1124" height="599" rx="54" fill="url(#g)"/>
  <rect x="38" y="38" width="1124" height="599" rx="54" fill="url(#r)"/>
  <circle cx="980" cy="132" r="82" fill="rgba(255,255,255,.24)"/>
  <circle cx="1018" cy="170" r="26" fill="rgba(255,255,255,.36)"/>
  <g filter="url(#shadow)">
    <rect x="110" y="118" width="330" height="440" rx="42" fill="rgba(15,23,42,.72)" stroke="rgba(255,255,255,.3)"/>
    <circle cx="275" cy="252" r="76" fill="rgba(255,255,255,.82)"/>
    <path d="M150 505c36-104 220-104 250 0" fill="rgba(255,255,255,.82)"/>
  </g>
  <g fill="rgba(255,255,255,.92)">
    <text x="500" y="218" font-family="Inter,Arial,sans-serif" font-size="34" font-weight="800" letter-spacing="3">RSP EDITOR</text>
    <text x="500" y="318" font-family="Inter,Arial,sans-serif" font-size="72" font-weight="900">Birthday Video</text>
    <text x="500" y="390" font-family="Inter,Arial,sans-serif" font-size="30" font-weight="700">#a855f7</text>
  </g>
  <g transform="translate(505 438)" fill="none" stroke="rgba(255,255,255,.78)" stroke-width="10" stroke-linecap="round">
    <path d="M0 40h260"/><path d="M45 0h170"/><path d="M95 80h70"/>
  </g>
</svg>